<?xml version="1.0" encoding="iso-8859-1"?><svg viewBox="0 0 424.96 424.96" xmlns="http://www.w3.org/2000/svg" xmlns:xlink="http://www.w3.org/1999/xlink"><style>:root>svg{display:none}:root>svg:target{display:block}</style><svg viewBox="0 0 256 256" id="arrow-right" xmlns="http://www.w3.org/2000/svg"><path d="M225.813 48.907L128 146.72 30.187 48.907 0 79.093l128 128 128-128z"/></svg><svg viewBox="0 0 341.333 341.333" id="refresh" xmlns="http://www.w3.org/2000/svg"><path d="M341.227 149.333V0l-50.133 50.133C260.267 19.2 217.707 0 170.56 0 76.267 0 .107 76.373.107 170.667s76.16 170.667 170.453 170.667c79.467 0 146.027-54.4 164.907-128h-44.373c-17.6 49.707-64.747 85.333-120.533 85.333-70.72 0-128-57.28-128-128s57.28-128 128-128c35.307 0 66.987 14.72 90.133 37.867l-68.8 68.8h149.333z"/></svg><svg viewBox="0 0 424.96 424.96" id="share" xmlns="http://www.w3.org/2000/svg"><path d="M340.48 300.587c-16.213 0-30.827 6.293-41.92 16.427l-152-88.64c1.173-4.8 1.92-9.813 1.92-14.933s-.747-10.133-1.92-14.933l150.4-87.787c11.413 10.667 26.667 17.28 43.52 17.28 35.307 0 64-28.693 64-64s-28.693-64-64-64-64 28.693-64 64c0 5.12.747 10.133 1.92 14.933L128 166.72c-11.413-10.667-26.667-17.28-43.52-17.28-35.307 0-64 28.693-64 64s28.693 64 64 64c16.853 0 32.107-6.613 43.52-17.28l152 88.64c-1.067 4.48-1.707 9.173-1.707 13.973 0 34.347 27.84 62.187 62.187 62.187s62.187-27.84 62.187-62.187-27.84-62.186-62.187-62.186z"/></svg></svg>